<?xml version="1.0" encoding="utf-8"?>
<!-- Generator: Adobe Illustrator 27.5.0, SVG Export Plug-In . SVG Version: 6.00 Build 0)  -->
<svg version="1.1" id="Layer_1" xmlns="http://www.w3.org/2000/svg" xmlns:xlink="http://www.w3.org/1999/xlink" x="0px" y="0px"
	 viewBox="0 0 5000 2916" style="enable-background:new 0 0 5000 2916;" xml:space="preserve">
<g>
	<g>
		<defs>
			<rect id="SVGID_1_" width="5000" height="2916"/>
		</defs>
		<clipPath id="SVGID_00000151544211307745507620000010298846448102444936_">
			<use xlink:href="#SVGID_1_"  style="overflow:visible;"/>
		</clipPath>
		
			<linearGradient id="SVGID_00000181076088466391048780000015853674901344144040_" gradientUnits="userSpaceOnUse" x1="85.9821" y1="2741.5505" x2="4656.3442" y2="311.4565">
			<stop  offset="0" style="stop-color:#000066"/>
			<stop  offset="1" style="stop-color:#99FFFF"/>
		</linearGradient>
		
			<rect style="clip-path:url(#SVGID_00000151544211307745507620000010298846448102444936_);fill:url(#SVGID_00000181076088466391048780000015853674901344144040_);" width="5000" height="2916"/>
	</g>
	<path style="fill:#FFFFFF;" d="M1616.648,1332.381l7.423,0.426l7.798-0.437l-7.267-0.136L1616.648,1332.381z M1565.542,1333.397
		l17.658,1.707c6.634-0.375,13.223-0.744,19.831-1.113c-6.191-0.344-12.495-0.678-18.705-1.022
		C1578.134,1333.094,1571.778,1333.261,1565.542,1333.397z M1538.269,1330.792l7.693,0.729c2.738-0.062,5.513-0.136,8.262-0.198
		l-7.517-0.411C1543.916,1330.865,1541.064,1330.834,1538.269,1330.792z M1521.182,1334.479l21.193,2.927
		c8.527-0.505,16.934-0.963,25.359-1.427c-7.258-0.702-14.608-1.4-21.908-2.099
		C1537.586,1334.089,1529.36,1334.292,1521.182,1334.479z M1489.515,1330.121l17.164,2.363l19.443-0.474l-17.048-1.619
		C1502.54,1330.303,1496.027,1330.215,1489.515,1330.121z M1461.42,1326.25l9.078,1.251l9.531,0.131l-9.276-0.88L1461.42,1326.25z
		 M1478.417,1335.526l23.478,4.28c9.407-0.573,18.876-1.161,28.22-1.714l-23.618-3.254L1478.417,1335.526z M1445.391,1329.511
		l21.639,3.943c8.345-0.209,16.648-0.406,24.962-0.61l-21.707-2.989C1461.996,1329.741,1453.725,1329.62,1445.391,1329.511z
		 M1414.192,1323.829l17.199,3.136c6.674,0.077,13.266,0.176,19.877,0.27l-17.55-2.405L1414.192,1323.829z M1387.235,1318.912
		l8.959,1.635l10.033,0.516l-8.705-1.193L1387.235,1318.912z M1436.816,1336.546l25.305,5.793
		c9.954-0.621,20.032-1.276,30.038-1.912l-25.322-4.613C1456.849,1336.052,1446.875,1336.287,1436.816,1336.546z M1403.54,1328.932
		l23.983,5.489c9.38-0.244,18.642-0.463,27.929-0.682l-24.275-4.422C1422.001,1329.183,1412.853,1329.043,1403.54,1328.932z
		 M1371.692,1321.649c7.052,1.618,13.998,3.202,21.035,4.812c8.206,0.094,16.347,0.196,24.458,0.307l-21.255-3.875
		L1371.692,1321.649z M1340.918,1314.607c5.888,1.354,11.614,2.656,17.491,4.005l19.533,1l-17.471-3.188L1340.918,1314.607z
		 M1314.348,1308.503c3.005,0.692,6.138,1.427,9.131,2.115l10.51,0.979l-8.995-1.641L1314.348,1308.503z M1395.169,1337.567
		c8.663,2.416,17.642,4.979,26.237,7.358c10.802-0.682,21.647-1.38,32.443-2.062l-26.587-6.083
		C1416.591,1337.036,1405.992,1337.269,1395.169,1337.567z M1363.037,1328.552c8.121,2.271,16.364,4.599,24.453,6.86
		c10.286-0.283,20.349-0.511,30.484-0.757l-25.529-5.842C1382.664,1328.725,1372.773,1328.652,1363.037,1328.552z M1331.002,1319.56
		c7.789,2.186,15.592,4.38,23.358,6.557c9.074,0.094,18.237,0.165,27.362,0.245c-7.919-1.814-15.722-3.588-23.656-5.411
		C1349.065,1320.485,1340.085,1320.017,1331.002,1319.56z M1299.735,1310.789c7.012,1.97,13.983,3.922,20.986,5.885
		c8.085,0.408,16.064,0.823,24.061,1.234c-7.288-1.672-14.353-3.27-21.676-4.957
		C1315.341,1312.227,1307.569,1311.507,1299.735,1310.789z M1270.097,1302.472c5.743,1.615,11.412,3.198,17.144,4.814
		c6.242,0.571,12.582,1.139,18.804,1.712c-5.597-1.292-11.432-2.655-17.05-3.952L1270.097,1302.472z M1244.272,1295.224
		c3.15,0.889,6.231,1.749,9.387,2.635l10.468,1.422l-8.731-2.027L1244.272,1295.224z M1354.797,1338.765l26.551,8.711
		c11.03-0.713,21.989-1.4,32.958-2.098c-8.918-2.478-18.131-5.098-27.112-7.604
		C1376.453,1338.089,1365.511,1338.458,1354.797,1338.765z M1322.568,1328.189c8.609,2.844,17.111,5.614,25.674,8.425
		c10.397-0.301,20.949-0.645,31.392-0.963c-8.49-2.375-17.074-4.791-25.597-7.181
		C1343.557,1328.37,1333.042,1328.282,1322.568,1328.189z M1290.671,1317.55c8.11,2.697,16.45,5.547,24.514,8.218l30.174,0.27
		l-25.019-7.026C1310.495,1318.523,1300.569,1318.038,1290.671,1317.55z M1259.805,1307.155c7.513,2.51,15.228,5.155,22.709,7.65
		c9.131,0.448,18.413,0.875,27.538,1.323c-7.756-2.177-15.445-4.328-23.217-6.515L1259.805,1307.155z M1229.576,1296.974
		c6.839,2.291,13.774,4.649,20.598,6.937l24.173,2.197c-7.082-1.995-14.037-3.926-21.131-5.927L1229.576,1296.974z
		 M1200.864,1287.303c5.618,1.891,11.256,3.797,16.863,5.677l19.043,2.589c-5.867-1.657-11.568-3.235-17.445-4.896
		L1200.864,1287.303z M1175.272,1278.679l10.084,3.401l9.563,1.745c-3.7-1.047-7.454-2.125-11.166-3.178L1175.272,1278.679z
		 M1314.623,1339.989c8.725,3.38,17.394,6.707,26.108,10.071c11.535-0.759,22.865-1.451,34.286-2.18l-27.138-8.907
		C1336.821,1339.307,1325.676,1339.662,1314.623,1339.989z M1283.107,1327.834c8.652,3.349,17.221,6.634,25.869,9.977
		c10.766-0.322,21.589-0.667,32.349-0.989c-8.85-2.906-17.616-5.76-26.529-8.708
		C1304.249,1328.016,1293.702,1327.922,1283.107,1327.834z M1251.602,1315.679c8.47,3.292,16.804,6.469,25.248,9.739
		c10.25,0.082,20.428,0.182,30.62,0.275c-8.323-2.76-17.034-5.765-25.405-8.556
		C1271.925,1316.647,1261.726,1316.17,1251.602,1315.679z M1220.221,1303.551c8.215,3.219,16.225,6.255,24.405,9.438l29.282,1.4
		c-7.997-2.666-16.194-5.468-24.216-8.155L1220.221,1303.551z M1190.219,1291.631c7.361,2.895,14.935,5.973,22.27,8.848l27.566,2.51
		c-7.575-2.541-15.248-5.14-22.85-7.698L1190.219,1291.631z M1161.019,1280.028c6.674,2.635,13.463,5.37,20.115,7.993l24.224,3.281
		l-20.615-6.943L1161.019,1280.028z M1132.939,1268.867c5.638,2.234,11.313,4.505,16.94,6.729l19.349,3.537
		c-5.897-1.99-11.739-3.943-17.652-5.943C1145.375,1271.753,1139.196,1270.32,1132.939,1268.867z M1108.101,1258.999l10.215,4.057
		l10.202,2.364c-3.857-1.308-7.621-2.557-11.483-3.869L1108.101,1258.999z M1274.18,1341.229c8.62,3.88,17.158,7.665,25.763,11.53
		c11.775-0.797,23.474-1.569,35.166-2.339c-8.86-3.421-17.679-6.813-26.549-10.244
		C1297.121,1340.52,1285.658,1340.874,1274.18,1341.229z M1243.455,1327.476c8.641,3.894,17.167,7.664,25.805,11.55
		c11.251-0.355,22.448-0.693,33.645-1.031c-8.854-3.423-17.636-6.787-26.508-10.224
		C1265.429,1327.672,1254.527,1327.553,1243.455,1327.476z M1212.957,1313.826c8.424,3.801,16.707,7.457,25.124,11.243
		c10.788,0.077,21.38,0.193,32.063,0.292c-8.708-3.375-17.289-6.641-26.023-10.042
		C1233.745,1314.82,1223.365,1314.32,1212.957,1313.826z M1182.286,1300.099c8.323,3.77,16.466,7.337,24.775,11.087
		c10.051,0.479,20.068,0.963,30.079,1.442c-8.385-3.264-16.762-6.525-25.192-9.832
		C1202.073,1301.901,1192.243,1300.994,1182.286,1300.099z M1151.748,1286.434c8.068,3.671,15.862,7.051,23.895,10.691
		c9.605,0.871,19.063,1.734,28.575,2.605c-7.803-3.062-15.836-6.324-23.666-9.406L1151.748,1286.434z M1122.658,1273.019
		c7.179,3.29,14.529,6.764,21.693,10.029l27.116,3.667c-7.372-2.912-14.863-5.921-22.26-8.848L1122.658,1273.019z
		 M1094.322,1259.917c6.575,3.02,13.227,6.14,19.781,9.143l23.963,4.38c-6.804-2.697-13.634-5.416-20.448-8.124
		C1109.886,1263.524,1102.182,1261.744,1094.322,1259.917z M1066.75,1247.163c5.692,2.629,11.395,5.28,17.076,7.9
		c6.481,1.51,12.817,2.973,19.167,4.443c-5.908-2.355-11.781-4.672-17.704-7.037L1066.75,1247.163z M1043.258,1236.3l9.6,4.437
		l10.406,2.978c-3.289-1.317-6.523-2.577-9.823-3.9C1050.057,1238.648,1046.626,1237.45,1043.258,1236.3z M1233.583,1342.467
		c8.527,4.371,17.15,8.859,25.639,13.176c11.833-0.817,23.875-1.708,35.728-2.531c-8.745-3.926-17.425-7.775-26.185-11.715
		C1257.047,1341.749,1245.39,1342.088,1233.583,1342.467z M1203.863,1327.198c8.47,4.36,16.945,8.717,25.396,13.051
		c11.623-0.38,23.056-0.709,34.587-1.058c-8.799-3.957-17.491-7.806-26.295-11.769
		C1226.359,1327.34,1215.113,1327.266,1203.863,1327.198z M1174.227,1311.972c8.36,4.312,16.662,8.556,25.013,12.852
		c10.969,0.068,22,0.12,32.932,0.193c-8.606-3.875-17.079-7.615-25.697-11.504
		C1195.737,1312.997,1185.05,1312.477,1174.227,1311.972z M1144.542,1296.718c8.248,4.272,16.395,8.405,24.624,12.649
		c10.547,0.496,20.949,1.007,31.408,1.506c-8.569-3.869-16.962-7.541-25.557-11.436
		C1164.908,1298.532,1154.663,1297.624,1144.542,1296.718z M1114.812,1281.438c8.11,4.224,16.066,8.223,24.159,12.416
		c9.772,0.88,19.647,1.749,29.434,2.625c-8.281-3.76-16.407-7.343-24.727-11.14L1114.812,1281.438z M1085.112,1266.159
		c7.888,4.13,15.55,7.958,23.412,12.052l27.882,3.764c-7.616-3.478-15.41-7.156-23.052-10.654L1085.112,1266.159z
		 M1057.099,1251.245c7.012,3.698,14.176,7.604,21.171,11.269l26.531,4.848c-7.216-3.316-14.525-6.727-21.761-10.06
		C1074.456,1255.301,1065.746,1253.266,1057.099,1251.245z M1029.306,1236.445c6.533,3.463,13.144,7.031,19.662,10.472
		c7.766,1.813,15.79,3.709,23.577,5.526c-6.845-3.156-13.7-6.328-20.558-9.504
		C1044.439,1240.783,1036.905,1238.631,1029.306,1236.445z M1002.803,1222.338c5.517,2.937,11.047,5.89,16.554,8.811
		c6.283,1.807,12.504,3.583,18.731,5.364c-5.686-2.636-11.313-5.219-17.008-7.868
		C1014.968,1226.53,1008.878,1224.43,1002.803,1222.338z M980.365,1210.391c3.047,1.629,6.08,3.239,9.125,4.859l10.345,3.571
		c-2.951-1.374-5.842-2.686-8.793-4.066C987.506,1213.322,983.894,1211.823,980.365,1210.391z M1192.899,1343.718
		c8.564,4.925,17.206,9.977,25.713,14.8c12-0.843,24.077-1.719,36.051-2.552c-8.62-4.396-17.325-8.904-25.977-13.347
		C1216.743,1342.989,1204.967,1343.317,1192.899,1343.718z M1164.367,1327.033c8.215,4.764,16.559,9.753,24.749,14.471
		c11.864-0.4,23.493-0.738,35.248-1.109c-8.574-4.4-17.142-8.791-25.733-13.216
		C1187.257,1327.121,1175.737,1327.09,1164.367,1327.033z M1135.526,1310.158c8.251,4.817,16.549,9.713,24.785,14.499
		c11.186,0.057,22.505,0.088,33.697,0.141c-8.516-4.385-16.977-8.697-25.504-13.102
		C1157.537,1311.18,1146.562,1310.664,1135.526,1310.158z M1106.799,1293.36c8.132,4.77,16.248,9.504,24.363,14.247
		c10.776,0.496,21.554,0.99,32.282,1.49c-8.423-4.354-16.742-8.561-25.175-12.935L1106.799,1293.36z M1077.944,1276.477
		c8.059,4.754,16.038,9.367,24.087,14.091l30.663,2.73c-8.356-4.334-16.545-8.436-24.925-12.807L1077.944,1276.477z
		 M1049.036,1259.567c7.928,4.707,15.711,9.149,23.625,13.821l28.818,3.869c-8.027-4.187-15.976-8.269-24.029-12.498
		L1049.036,1259.567z M1020.544,1242.668c7.528,4.499,15.033,8.958,22.536,13.42l27.524,5.026
		c-7.446-3.911-15.045-8.042-22.51-11.984C1038.911,1246.976,1029.638,1244.793,1020.544,1242.668z M993.395,1226.17
		c6.847,4.119,13.827,8.462,20.657,12.551c8.558,2.004,17.269,4.051,25.91,6.083c-7.153-3.787-14.384-7.672-21.551-11.473
		C1010.096,1230.956,1001.818,1228.597,993.395,1226.17z M966.429,1209.786c6.43,3.891,12.925,7.885,19.34,11.754
		c7.648,2.203,15.153,4.338,22.692,6.495c-6.653-3.537-13.311-7.082-19.981-10.639L966.429,1209.786z M940.863,1194.253
		c5.352,3.253,10.718,6.524,16.066,9.764c6.096,2.104,12.16,4.197,18.241,6.291c-5.508-2.943-10.964-5.816-16.476-8.77
		C952.727,1199.09,946.782,1196.663,940.863,1194.253z M919.087,1181.02c3.003,1.834,5.991,3.64,8.99,5.468l10.059,4.11
		c-2.953-1.589-5.847-3.094-8.804-4.687C925.943,1184.305,922.476,1182.624,919.087,1181.02z M1152.611,1345.192
		c8.563,5.495,17.054,10.826,25.555,16.191c12.088-0.865,24.11-1.714,36.136-2.557c-8.532-4.854-17.232-9.998-25.816-14.945
		C1176.6,1344.295,1164.486,1344.78,1152.611,1345.192z M1124.812,1326.86c8.058,5.249,16.321,10.931,24.343,16.103
		c11.776-0.411,23.759-0.885,35.54-1.297c-8.297-4.791-16.727-9.816-25.055-14.655
		C1148.062,1326.954,1136.421,1326.908,1124.812,1326.86z M1096.955,1308.441c8.064,5.291,16.228,10.801,24.27,16.049
		c11.464,0.048,22.933,0.088,34.36,0.147c-8.362-4.865-16.764-9.807-25.14-14.706
		C1119.321,1309.43,1108.081,1308.941,1096.955,1308.441z M1069.074,1289.996c8.016,5.294,16.064,10.659,24.06,15.913
		c10.95,0.496,22.001,0.974,32.944,1.47c-8.266-4.839-16.523-9.651-24.812-14.515
		C1090.548,1291.906,1079.854,1290.953,1069.074,1289.996z M1041.153,1271.535c7.944,5.269,15.864,10.488,23.786,15.726
		c10.573,0.939,21.042,1.876,31.548,2.813c-8.231-4.837-16.389-9.546-24.645-14.414L1041.153,1271.535z M1013.146,1253.005
		c7.866,5.26,15.643,10.321,23.489,15.541l29.922,4.019c-8.156-4.822-16.169-9.379-24.358-14.249L1013.146,1253.005z
		 M984.847,1234.294c7.829,5.271,15.493,10.187,23.297,15.405l28.106,5.14c-7.668-4.567-15.436-9.307-23.124-13.909
		C1003.714,1238.721,994.222,1236.488,984.847,1234.294z M958.302,1216.13c6.94,4.703,14.035,9.759,20.953,14.431l27.379,6.421
		c-7.236-4.338-14.602-8.905-21.855-13.275C975.977,1221.191,967.261,1218.718,958.302,1216.13z M931.684,1197.798
		c6.801,4.641,13.697,9.495,20.486,14.102c8.423,2.438,16.691,4.797,24.988,7.172c-7.065-4.26-14.196-8.635-21.276-12.926
		C947.829,1203.371,939.79,1200.606,931.684,1197.798z M905.646,1179.863c6.251,4.292,12.54,8.666,18.782,12.937
		c7.361,2.552,14.65,5.062,21.954,7.577c-6.477-3.932-12.948-7.852-19.434-11.806L905.646,1179.863z M880.844,1162.783
		c5.243,3.619,10.479,7.224,15.717,10.826l17.601,7.192c-5.434-3.323-10.817-6.546-16.268-9.884
		C892.193,1168.188,886.508,1165.474,880.844,1162.783z M859.312,1147.957c3.067,2.129,6.112,4.196,9.179,6.321l9.39,4.479
		c-3.394-2.089-6.719-4.053-10.114-6.145C864.961,1151.076,862.113,1149.482,859.312,1147.957z M1112.755,1346.645
		c8.277,5.927,16.529,11.763,24.78,17.616c12.312-0.9,24.405-1.729,36.623-2.592c-8.549-5.396-17.096-10.786-25.713-16.327
		C1136.594,1345.765,1124.625,1346.216,1112.755,1346.645z M1085.222,1326.688c8.13,5.912,16.294,11.916,24.383,17.717
		c11.802-0.422,23.687-0.874,35.469-1.291c-8.118-5.245-16.452-10.957-24.604-16.273
		C1108.731,1326.787,1097.033,1326.73,1085.222,1326.688z M1058.365,1306.718c7.855,5.769,15.842,11.899,23.671,17.602
		c11.682,0.037,23.239,0.103,34.848,0.151c-8.138-5.317-16.387-10.875-24.55-16.237
		C1081.037,1307.728,1069.704,1307.223,1058.365,1306.718z M1031.397,1286.661c7.852,5.807,15.765,11.786,23.599,17.55
		c11.186,0.495,22.369,0.991,33.515,1.496c-8.121-5.344-16.285-10.775-24.42-16.154
		C1053.21,1288.589,1042.347,1287.621,1031.397,1286.661z M1004.426,1266.598c7.789,5.806,15.587,11.622,23.364,17.383
		c10.755,0.942,21.463,1.891,32.161,2.837c-8.068-5.342-16.123-10.639-24.212-16.013L1004.426,1266.598z M977.35,1246.465
		c7.741,5.802,15.442,11.471,23.166,17.232l30.705,4.119c-8.033-5.344-15.987-10.509-24.042-15.899L977.35,1246.465z
		 M949.983,1226.113c7.746,5.848,15.373,11.385,23.099,17.179l29.1,5.318c-8.016-5.37-15.893-10.442-23.935-15.869L949.983,1226.113
		z M923.355,1205.959c7.293,5.556,14.593,11.107,21.869,16.612l27.691,6.5c-7.216-4.874-14.597-10.119-21.823-15.03
		C941.878,1211.364,932.507,1208.605,923.355,1205.959z M897.758,1186.087c6.815,5.229,13.739,10.758,20.538,15.946
		c8.787,2.547,17.757,5.175,26.622,7.758c-7.168-4.879-14.435-9.977-21.619-14.888
		C914.802,1191.977,906.353,1189.076,897.758,1186.087z M872.061,1166.141c6.622,5.114,13.302,10.383,19.914,15.455
		c8.104,2.824,16.06,5.552,24.066,8.308c-6.881-4.714-13.794-9.505-20.688-14.243
		C887.602,1172.494,879.855,1169.339,872.061,1166.141z M846.855,1146.576c6.096,4.734,12.202,9.488,18.288,14.197
		c7.074,2.904,14.091,5.765,21.125,8.629c-6.351-4.374-12.682-8.708-19.038-13.108L846.855,1146.576z M822.605,1127.75
		c5.181,4.047,10.334,8.016,15.51,12.041c5.596,2.677,11.172,5.328,16.756,7.994c-5.491-3.818-10.922-7.477-16.424-11.311
		C833.158,1133.552,827.874,1130.64,822.605,1127.75z M800.966,1110.951c3.241,2.547,6.444,4.979,9.682,7.514l8.262,4.551
		c-4.29-2.998-8.487-5.794-12.782-8.811C804.411,1113.128,802.678,1112.024,800.966,1110.951z M1072.76,1348.107
		c8.016,6.37,16.027,12.728,24.04,19.086c12.431-0.926,24.629-1.769,36.962-2.666c-8.309-5.89-16.617-11.76-24.957-17.737
		C1096.81,1347.222,1084.8,1347.661,1072.76,1348.107z M1045.605,1326.522c8.147,6.592,16.211,12.889,24.317,19.336
		c11.946-0.448,23.841-0.875,35.733-1.308c-8.112-5.827-16.321-11.945-24.468-17.877
		C1069.307,1326.625,1057.588,1326.548,1045.605,1326.522z M1019.752,1304.993c7.633,6.25,15.399,12.994,23.01,19.16
		c11.869,0.026,23.474,0.105,35.234,0.151c-7.908-5.771-15.967-11.942-23.901-17.773
		C1042.654,1306.014,1031.267,1305.498,1019.752,1304.993z M993.797,1283.382c7.636,6.305,15.346,12.873,22.968,19.121
		c11.39,0.502,22.64,1.01,33.957,1.516c-7.928-5.836-15.93-11.874-23.873-17.758
		C1015.87,1285.304,1004.787,1284.345,993.797,1283.382z M967.746,1261.691c7.627,6.338,15.269,12.759,22.874,19.049
		c10.85,0.948,21.787,1.896,32.62,2.844c-7.892-5.853-15.799-11.743-23.711-17.639L967.746,1261.691z M941.606,1239.928
		c7.59,6.354,15.16,12.623,22.735,18.93l31.283,4.181c-7.877-5.873-15.711-11.627-23.605-17.548L941.606,1239.928z
		 M915.218,1217.952c7.601,6.412,15.123,12.555,22.708,18.91l29.831,5.453c-7.913-5.938-15.711-11.584-23.645-17.582
		L915.218,1217.952z M888.777,1195.883c7.507,6.389,14.899,12.379,22.39,18.7l28.185,6.614c-7.377-5.593-14.843-11.414-22.24-17.06
		C907.691,1201.398,898.169,1198.605,888.777,1195.883z M864.206,1174.474c6.746,5.785,13.609,11.982,20.345,17.721
		c9.115,2.651,18.356,5.354,27.502,8.019c-7.06-5.393-14.238-11.113-21.313-16.543
		C881.916,1180.614,873.134,1177.588,864.206,1174.474z M839.259,1152.743c6.691,5.78,13.447,11.795,20.127,17.534
		c8.558,2.989,17.079,5.952,25.572,8.899c-7.014-5.394-14.093-10.962-21.12-16.392
		C855.658,1159.45,847.516,1156.143,839.259,1152.743z M814.433,1131.114c6.439,5.6,12.9,11.271,19.324,16.832
		c7.789,3.213,15.451,6.322,23.155,9.462c-6.714-5.201-13.436-10.415-20.167-15.653
		C829.322,1138.218,821.902,1134.693,814.433,1131.114z M789.923,1109.762c5.967,5.223,11.918,10.38,17.873,15.566
		c6.768,3.25,13.482,6.443,20.209,9.64c-6.279-4.896-12.51-9.671-18.804-14.598C802.777,1116.836,796.358,1113.31,789.923,1109.762z
		 M766.054,1088.969c5.164,4.551,10.288,8.925,15.447,13.456c5.258,2.906,10.494,5.781,15.743,8.666
		c-5.675-4.457-11.262-8.666-16.945-13.149C775.545,1094.937,770.798,1091.948,766.054,1088.969z M743.986,1069.742
		c3.52,3.125,6.982,6.04,10.501,9.151l7.854,4.946c-3.419-2.711-6.923-5.638-10.343-8.363
		C749.323,1073.559,746.647,1071.638,743.986,1069.742z M4851.782,2277.135c-6.372,2.802-12.727,5.649-19.105,8.431
		c13.682-5.109,27.336-10.279,40.951-15.586C4866.333,2272.338,4859.091,2274.817,4851.782,2277.135z M4918.647,2246.842
		c-14.474,6.759-28.97,13.446-43.515,19.992c13.768-4.473,27.444-9.171,41.146-13.806c14.685-5.895,29.435-11.618,44.061-17.675
		C4946.524,2239.343,4932.546,2243.013,4918.647,2246.842z M1032.112,1349.591c7.902,7.036,15.769,13.889,23.645,20.795
		c12.409-0.942,25.092-1.973,37.502-2.915c-8.068-6.407-16.137-12.796-24.216-19.228
		C1056.725,1348.691,1044.512,1349.117,1032.112,1349.591z M1006.654,1326.5c7.611,6.869,15.294,14.056,22.885,20.831
		c12.318-0.474,24.437-0.891,36.667-1.337c-8.118-6.469-16.222-12.88-24.38-19.489
		C1030.18,1326.491,1018.322,1326.517,1006.654,1326.5z M981.323,1303.295c7.574,6.901,15.195,14.014,22.76,20.852
		c11.557,0.011,23.353-0.026,34.899-0.009c-7.673-6.23-15.502-13.009-23.203-19.321
		C1004.291,1304.311,992.9,1303.795,981.323,1303.295z M955.981,1280.084c7.553,6.926,15.107,13.875,22.644,20.744
		c11.463,0.488,22.782,0.999,34.166,1.499c-7.698-6.316-15.482-12.935-23.191-19.31L955.981,1280.084z M930.452,1256.703
		c7.573,7.009,15.113,13.827,22.672,20.767l33.301,2.901c-7.706-6.369-15.441-12.858-23.157-19.279L930.452,1256.703z
		 M904.891,1233.216c7.531,7.036,14.997,13.743,22.514,20.701l32.455,4.343c-7.69-6.404-15.362-12.754-23.069-19.211
		L904.891,1233.216z M880.245,1209.745c7.159,6.745,14.389,13.827,21.537,20.508l31.329,5.728
		c-7.73-6.479-15.389-12.713-23.129-19.258C900.07,1214.401,890.221,1212.094,880.245,1209.745z M855.492,1186.175
		c7.117,6.759,14.268,13.656,21.375,20.357c9.761,2.296,19.375,4.545,29.063,6.822c-7.553-6.39-15.06-12.618-22.63-19.07
		C874.05,1191.591,864.737,1188.868,855.492,1186.175z M830.82,1162.689c6.992,6.688,13.972,13.322,20.955,19.955l27.294,7.953
		c-6.951-5.932-14.026-12.301-20.992-18.285C849.015,1169.121,839.821,1165.845,830.82,1162.689z M806.171,1139.223
		c6.847,6.593,13.646,12.952,20.475,19.492c8.797,3.083,17.763,6.275,26.613,9.395c-6.929-5.958-13.931-12.176-20.872-18.175
		C823.664,1146.373,815.015,1142.879,806.171,1139.223z M781.266,1115.299c6.752,6.555,13.463,12.941,20.2,19.439
		c8.567,3.548,16.96,6.948,25.425,10.4c-6.83-5.91-13.68-11.91-20.516-17.868C798.019,1123.293,789.699,1119.361,781.266,1115.299z
		 M757.746,1092.047c6.117,5.989,12.297,12.243,18.403,18.19c7.928,3.823,15.737,7.516,23.589,11.248
		c-6.58-5.739-13.135-11.399-19.727-17.179C772.599,1100.233,765.2,1096.182,757.746,1092.047z M734.554,1069.129
		c5.67,5.587,11.359,11.275,17.017,16.825c6.71,3.718,13.359,7.36,20.018,11.015c-6.259-5.5-12.442-10.76-18.71-16.295
		C746.772,1076.83,740.675,1073.003,734.554,1069.129z M712.064,1046.906c4.906,4.865,9.804,9.687,14.701,14.524
		c4.863,3.083,9.699,6.114,14.545,9.16c-5.439-4.822-10.859-9.577-16.304-14.431C720.685,1053.068,716.38,1049.995,712.064,1046.906
		z M691.46,1026.54c3.315,3.312,6.611,6.509,9.926,9.81c2.863,2.057,5.723,4.093,8.586,6.14c-3.248-2.904-6.549-5.987-9.803-8.91
		C697.263,1031.226,694.36,1028.878,691.46,1026.54z M4727.642,2325.566c-6.646,3.125-13.294,6.25-19.963,9.28
		c12.347-4.848,24.65-9.836,36.96-14.826C4739.002,2321.952,4733.286,2323.661,4727.642,2325.566z M4792.753,2294.907
		c-15.435,7.448-30.938,14.649-46.426,21.893c16.535-5.686,32.885-11.894,49.331-17.825c12.511-5.295,24.979-10.733,37.437-16.211
		C4819.694,2286.919,4806.222,2290.908,4792.753,2294.907z M4855.26,2263.933c-16.305,8.197-32.637,16.295-48.998,24.278
		c15.181-4.578,30.46-8.931,45.551-13.711c17.773-7.859,35.525-15.77,53.209-23.905
		C4888.457,2255.085,4871.945,2259.678,4855.26,2263.933z M4920.251,2230.317c-18.259,9.645-36.52,19.279-54.866,28.595
		c17.782-4.598,35.313-9.705,52.959-14.57c18.086-8.405,36.187-16.767,54.194-25.433
		C4955.212,2222.885,4937.722,2226.578,4920.251,2230.317z M992.214,1351.061c7.579,7.557,15.144,14.977,22.718,22.501
		c12.468-0.957,25.055-1.964,37.498-2.915c-7.928-6.948-15.845-13.843-23.801-20.93
		C1016.463,1350.176,1004.483,1350.576,992.214,1351.061z M967.428,1326.511c7.517,7.525,14.993,14.811,22.505,22.288
		c12.161-0.478,24.062-0.889,36.124-1.343c-7.601-6.796-15.305-14.065-22.927-20.956
		C991.286,1326.496,979.297,1326.517,967.428,1326.511z M942.44,1301.692c7.565,7.661,15.065,14.91,22.615,22.466
		c11.802,0.006,23.717-0.017,35.504-0.011c-7.621-6.895-15.3-14.045-22.938-21.002
		C965.961,1302.65,954.111,1302.182,942.44,1301.692z M918.259,1276.8c7.256,7.42,14.551,15.087,21.797,22.433
		c11.572,0.485,23.311,0.959,34.874,1.443c-7.61-6.941-15.232-13.929-22.854-20.929C940.8,1278.767,929.607,1277.777,918.259,1276.8
		z M894.015,1251.849c7.247,7.462,14.494,14.962,21.73,22.367c11.239,0.968,22.312,1.942,33.474,2.915
		c-7.644-7.019-15.254-13.894-22.912-20.982L894.015,1251.849z M869.652,1226.769c7.247,7.531,14.472,14.885,21.708,22.347
		l31.902,4.249c-7.548-6.999-15.07-13.857-22.64-20.93L869.652,1226.769z M845.096,1201.5c7.267,7.615,14.472,14.822,21.724,22.358
		l30.694,5.612c-7.252-6.784-14.587-13.951-21.849-20.798C865.461,1206.277,855.399,1203.928,845.096,1201.5z M821.226,1176.192
		c6.93,7.327,13.899,14.91,20.824,22.169c10.198,2.407,20.147,4.729,30.24,7.099c-7.247-6.833-14.525-13.843-21.776-20.732
		L821.226,1176.192z M797.602,1150.96c6.821,7.266,13.656,14.655,20.464,21.856l28.733,8.374
		c-7.154-6.801-14.307-13.58-21.469-20.44C816.108,1157.503,806.795,1154.196,797.602,1150.96z M774.03,1125.788
		c6.7,7.19,13.39,14.304,20.078,21.445c8.975,3.154,18.055,6.379,27.05,9.546c-7.043-6.744-14.029-13.264-21.083-20.071
		C791.438,1133.104,782.63,1129.359,774.03,1125.788z M750.452,1100.603c6.564,7.108,13.087,13.931,19.642,20.982
		c8.325,3.458,16.809,7.051,25.192,10.562c-6.841-6.61-13.697-13.296-20.547-19.963
		C766.652,1108.331,758.642,1104.565,750.452,1100.603z M726.822,1075.028c6.384,6.963,12.751,13.852,19.122,20.758
		c7.965,3.86,15.799,7.578,23.676,11.337c-6.476-6.31-13.015-12.91-19.506-19.274
		C742.363,1083.594,734.653,1079.387,726.822,1075.028z M704.255,1050.052c5.899,6.479,11.824,13.165,17.712,19.602
		c7.392,4.119,14.664,8.082,21.98,12.098c-6.228-6.12-12.474-12.333-18.71-18.493
		C718.255,1058.879,711.289,1054.52,704.255,1050.052z M681.948,1025.357c5.482,6.077,10.973,12.176,16.456,18.212
		c6.381,4.068,12.708,8.019,19.037,11.993c-5.877-5.822-11.739-11.561-17.627-17.42
		C693.864,1033.892,687.924,1029.665,681.948,1025.357z M660.151,1001.229c4.79,5.35,9.563,10.573,14.347,15.884
		c4.9,3.537,9.762,6.994,14.63,10.468c-5.43-5.427-10.813-10.608-16.253-16.066C668.632,1008.089,664.399,1004.683,660.151,1001.229
		z M639.703,978.598c3.405,3.823,6.777,7.462,10.176,11.269c2.479,2.015,4.942,3.99,7.414,5.989
		c-3.644-3.676-7.335-7.562-10.984-11.255C644.107,982.591,641.905,980.608,639.703,978.598z M4922.785,2205.794
		c-19.34,11.358-38.709,22.544-58.124,33.574c18.492-3.645,36.816-7.567,55.147-11.482c19.35-10.193,38.647-20.596,57.909-31.116
		C4959.471,2199.868,4941.214,2202.957,4922.785,2205.794z M4602.759,2376.585c-6.913,3.338-13.852,6.583-20.787,9.847
		c13.656-5.604,27.316-11.17,40.923-16.961C4616.201,2371.904,4609.47,2374.201,4602.759,2376.585z M4666.027,2345.674
		c-14.738,7.357-29.519,14.482-44.297,21.641c13.978-5.067,27.902-10.31,41.828-15.564c15.201-6.672,30.424-13.264,45.571-20.144
		C4694.783,2336.355,4680.442,2341.115,4666.027,2345.674z M4729.152,2313.249c-16.226,8.453-32.462,16.847-48.741,25.059
		c15.882-5.104,31.771-10.186,47.571-15.518c16.658-7.692,33.286-15.482,49.882-23.403
		C4761.673,2304.121,4745.442,2308.756,4729.152,2313.249z M4793.337,2278.937c-17.857,9.753-35.719,19.481-53.653,28.896
		c17.752-4.958,35.353-10.29,52.986-15.529c17.434-8.431,34.801-17.122,52.162-25.84
		C4827.741,2270.765,4810.552,2274.879,4793.337,2278.937z M4812.666,2268.521c-3.546,1.953-7.117,3.803-10.667,5.745
		c17.689-4.213,35.416-8.348,52.969-12.827c18.881-9.535,37.696-19.336,56.489-29.203c-17.732,3.744-35.514,7.395-53.396,10.884
		C4842.953,2251.679,4827.824,2260.169,4812.666,2268.521z M951.988,1352.764c7.245,7.967,14.514,16.123,21.75,24.006
		c12.718-1,25.399-1.984,38.055-2.964c-7.61-7.562-15.212-15.019-22.828-22.612C976.726,1351.695,964.227,1352.262,951.988,1352.764
		z M928.222,1326.528c7.241,8.013,14.479,16.007,21.715,23.966c12.165-0.496,24.582-1.058,36.747-1.552
		c-7.557-7.525-15.08-14.848-22.644-22.424C952.128,1326.511,940.185,1326.522,928.222,1326.528z M904.296,1300.113
		c7.278,8.13,14.525,16.009,21.792,24.059c11.886-0.009,23.739-0.015,35.571-0.015c-7.562-7.578-15.085-14.931-22.672-22.612
		C927.463,1301.067,915.858,1300.593,904.296,1300.113z M880.568,1273.565c7.179,8.109,14.343,16.086,21.512,24.101
		c11.503,0.479,23.052,0.948,34.524,1.427c-7.304-7.411-14.653-15.129-21.968-22.612
		C903.328,1275.508,891.912,1274.538,880.568,1273.565z M857.36,1246.97c6.986,7.967,14,16.148,20.975,24.037
		c11.24,0.964,22.578,1.927,33.786,2.891c-7.293-7.468-14.608-15.024-21.917-22.555L857.36,1246.97z M834.049,1220.26
		c6.992,8.041,13.984,16.049,20.964,24.017l32.536,4.334c-7.313-7.547-14.613-14.967-21.938-22.58L834.049,1220.26z
		 M810.617,1193.408c6.997,8.12,13.962,15.963,20.949,24.002l31.219,5.714c-7.346-7.641-14.633-14.916-21.99-22.632
		C830.712,1198.122,820.82,1195.814,810.617,1193.408z M787.309,1166.308c6.887,8.067,13.765,16.049,20.643,24.043
		c10.062,2.375,19.891,4.677,29.849,7.016c-6.99-7.343-14.044-15.072-21.047-22.477
		C806.942,1172.031,797.181,1169.192,787.309,1166.308z M764.587,1139.306c6.659,7.869,13.337,15.952,19.991,23.747
		c9.724,2.85,19.345,5.646,29.017,8.464c-6.938-7.354-13.899-14.859-20.848-22.268
		C783.379,1145.945,773.956,1142.613,764.587,1139.306z M741.846,1112.289c6.586,7.848,13.172,15.68,19.752,23.466
		c9.205,3.245,18.45,6.52,27.654,9.759c-6.863-7.321-13.713-14.593-20.585-21.976
		C759.751,1119.808,750.739,1115.996,741.846,1112.289z M719.072,1085.224c6.496,7.812,12.967,15.373,19.454,23.117
		c8.688,3.625,17.491,7.343,26.205,10.993c-6.763-7.284-13.487-14.295-20.266-21.641
		C736.027,1093.562,727.468,1089.302,719.072,1085.224z M696.664,1058.306c6.222,7.541,12.423,14.957,18.634,22.436
		c8.141,3.963,16.424,8.072,24.613,12.081c-6.472-7.02-12.962-14.213-19.445-21.295
		C712.554,1067.148,704.646,1062.774,696.664,1058.306z M674.968,1031.606c5.857,7.161,11.745,14.539,17.596,21.653
		c7.688,4.308,15.389,8.635,23.047,12.895c-6.242-6.833-12.521-13.889-18.768-20.773
		C689.559,1040.809,682.323,1036.304,674.968,1031.606z M653.139,1004.745c5.726,7.057,11.458,14.133,17.179,21.138
		c6.95,4.446,13.791,8.701,20.669,13.013c-6.024-6.645-12.052-13.315-18.086-20.012
		C666.326,1014.198,659.771,1009.552,653.139,1004.745z M631.395,977.988c5.372,6.667,10.723,13.17,16.086,19.795
		c6.033,4.38,11.994,8.604,17.971,12.859c-5.726-6.381-11.432-12.583-17.17-19.004C642.666,987.118,637.053,982.614,631.395,977.988
		z M609.836,951.439c4.775,5.983,9.522,11.666,14.295,17.612c4.654,3.807,9.262,7.505,13.879,11.218
		c-5.049-5.672-10.088-11.275-15.139-16.977C618.53,959.355,614.194,955.438,609.836,951.439z M592.98,929.984
		c2.654,3.344,5.326,6.827,7.98,10.16c2.764,2.541,5.502,5.004,8.246,7.499c-2.842-3.23-5.704-6.568-8.548-9.801
		C598.097,935.213,595.54,932.613,592.98,929.984z M4475.351,2430.969c-6.367,3.145-12.735,6.25-19.105,9.353
		c13.175-5.613,26.31-11.399,39.444-17.205C4488.902,2425.694,4482.149,2428.439,4475.351,2430.969z M4539.393,2398.583
		c-13.769,7.114-27.554,14.139-41.356,21.071c13.161-5.01,26.315-10.056,39.436-15.234c14.545-6.628,29.068-13.341,43.572-20.159
		C4567.176,2389.089,4553.314,2393.943,4539.393,2398.583z M4603.987,2364.519c-17.09,9.219-34.207,18.269-51.345,27.205
		c16.628-5.623,33.134-11.659,49.679-17.548c15.874-7.593,31.699-15.405,47.524-23.222
		C4634.63,2355.677,4619.277,2360.008,4603.987,2364.519z M4667.063,2329.769c-17.534,9.831-35.094,19.532-52.679,29.084
		c17.347-5.18,34.656-10.477,51.902-15.935c17.434-8.733,34.808-17.769,52.173-26.824
		C4701.369,2320.749,4684.268,2325.384,4667.063,2329.769z M4731.507,2292.909c-18.476,10.775-36.974,21.414-55.506,31.871
		c17.715-4.578,35.393-9.243,52.995-14.102c18.477-9.665,36.899-19.58,55.312-29.554
		C4766.78,2285.197,4749.165,2289.096,4731.507,2292.909z M4795.958,2254.7c-19.188,11.592-38.413,22.972-57.659,34.229
		c18.308-3.988,36.508-8.201,54.67-12.478c6.181-3.358,12.392-6.597,18.561-9.998c13.161-7.255,26.299-14.598,39.425-22.007
		C4832.682,2247.966,4814.388,2251.45,4795.958,2254.7z M4861.097,2214.6c-19.7,12.322-39.425,24.493-59.191,36.469
		c18.632-3.316,37.184-6.774,55.65-10.373c19.636-11.124,39.238-22.393,58.8-33.846
		C4898.078,2209.638,4879.555,2212.076,4861.097,2214.6z M4925.991,2173.351c-19.902,12.858-39.833,25.56-59.803,38.078
		c18.736-2.594,37.476-5.177,56.024-8.035c20.245-11.894,40.46-23.94,60.628-36.183
		C4963.952,2169.331,4945.097,2171.486,4925.991,2173.351z M911.715,1354.465c6.981,8.453,13.983,17.164,20.958,25.504
		c12.78-1.022,25.373-1.975,38.071-2.964c-7.267-7.937-14.568-16.103-21.843-24.113
		C936.563,1353.398,924.079,1353.951,911.715,1354.465z M888.867,1326.542c6.99,8.535,13.992,17.181,20.984,25.648
		c12.307-0.516,24.717-1.058,36.993-1.563c-7.273-8.014-14.551-16.035-21.829-24.1
		C912.958,1326.531,900.995,1326.522,888.867,1326.542z M865.949,1298.532c7.003,8.629,13.994,17.106,20.992,25.652
		c12.062-0.015,23.952-0.006,35.941-0.011c-7.315-8.102-14.602-16.007-21.926-24.193
		C889.299,1299.494,877.668,1299.005,865.949,1298.532z M843.07,1270.368c6.971,8.692,13.921,17.139,20.887,25.726
		c11.645,0.469,23.197,0.954,34.78,1.437c-7.185-8.051-14.372-16.118-21.574-24.256L843.07,1270.368z M820.795,1242.111
		c6.757,8.51,13.524,17.295,20.277,25.72c11.28,0.964,22.607,1.922,33.863,2.886c-7.034-7.962-14.097-16.185-21.142-24.221
		L820.795,1242.111z M798.43,1213.745c6.756,8.593,13.514,17.196,20.271,25.709l32.745,4.348
		c-7.048-8.045-14.092-16.112-21.146-24.23L798.43,1213.745z M775.905,1185.175c6.782,8.706,13.544,17.148,20.323,25.771
		l31.584,5.776c-7.065-8.135-14.103-16.044-21.179-24.263C796.463,1190.055,786.03,1187.566,775.905,1185.175z M753.701,1156.513
		c6.621,8.587,13.238,17.176,19.855,25.68c10.022,2.368,20.345,4.832,30.412,7.216c-6.913-8.045-13.836-16.174-20.76-24.298
		C773.358,1162.241,763.628,1159.419,753.701,1156.513z M731.821,1127.741c6.492,8.502,12.999,17.196,19.486,25.615
		c9.813,2.881,19.428,5.666,29.164,8.505c-6.753-7.931-13.532-16.112-20.294-24.111
		C750.739,1134.421,741.296,1131.094,731.821,1127.741z M709.873,1098.879c6.455,8.53,12.905,16.992,19.355,25.445
		c9.339,3.307,18.648,6.588,27.956,9.873c-6.705-7.946-13.416-15.905-20.13-23.918
		C728.016,1106.492,718.916,1102.66,709.873,1098.879z M687.82,1069.884c6.409,8.55,12.797,16.773,19.199,25.246
		c8.892,3.724,17.831,7.483,26.712,11.201c-6.657-7.951-13.291-15.68-19.953-23.704
		C705.146,1078.397,696.431,1074.085,687.82,1069.884z M666.513,1041.178c6.038,8.124,12.088,16.451,18.117,24.507
		c8.422,4.114,16.934,8.326,25.379,12.462c-6.33-7.633-12.672-15.362-19.008-23.06
		C682.848,1050.474,674.619,1045.74,666.513,1041.178z M645.591,1012.693c5.829,7.914,11.671,15.967,17.496,23.819
		c7.886,4.442,15.887,9.035,23.812,13.53c-6.055-7.365-12.131-14.956-18.185-22.373
		C661.041,1022.733,653.264,1017.619,645.591,1012.693z M624.715,984.263c5.644,7.724,11.276,15.362,16.915,23.029
		c7.401,4.766,14.945,9.77,22.374,14.576c-6.05-7.42-12.105-14.862-18.158-22.34C638.818,994.481,631.79,989.424,624.715,984.263z
		 M603.616,955.532c5.456,7.536,10.896,14.78,16.353,22.265c6.736,4.914,13.498,9.893,20.212,14.763
		c-5.902-7.306-11.779-14.416-17.689-21.773C616.214,965.745,609.957,960.746,603.616,955.532z M583.543,927.532
		c4.793,6.676,9.603,13.639,14.398,20.273c5.794,4.775,11.542,9.41,17.283,14.045c-5.295-6.619-10.604-13.31-15.908-19.977
		C594.068,937.135,588.832,932.42,583.543,927.532z M564.769,901.086c4.103,5.756,8.21,11.613,12.307,17.337
		c4.487,4.156,8.922,8.144,13.362,12.155c-4.273-5.39-8.564-10.942-12.843-16.353C573.322,909.863,569.06,905.529,564.769,901.086z
		 M548.23,877.782c2.567,3.63,5.133,7.239,7.701,10.854c2.68,2.78,5.335,5.473,8.006,8.196c-2.77-3.52-5.533-7.034-8.298-10.56
		C553.165,883.428,550.704,880.641,548.23,877.782z M996.955,1405.209c-13.041,1.484-25.924,2.906-39.059,4.432
		c1227.233,1452.897,2363.572,1546.775,3412.519,1068.582C3357.503,2877.896,2243.716,2745.271,996.955,1405.209z M1038.79,1400.543
		c-12.982,1.453-25.788,2.839-38.866,4.339C2263.057,2761.76,3389.441,2878.463,4412.667,2458.434
		c9.875-4.655,19.772-9.154,29.632-13.909c4.388-2.12,8.766-4.297,13.15-6.438C3455.858,2802.655,2337.37,2665.1,1038.79,1400.543z
		 M1081.057,1395.825c-13.062,1.453-26.097,2.895-39.226,4.38C2347.64,2671.053,3471.174,2801.9,4474.721,2428.658
		c17.039-8.422,34.057-16.968,51.048-25.675C3543.171,2725.858,2424.538,2578.378,1081.057,1395.825z M1123.073,1391.133
		c-12.883,1.422-25.879,2.89-38.804,4.334C2432.455,2581.398,3554.042,2724.55,4538.866,2396.202
		c18.112-9.364,36.198-18.868,54.256-28.538C3627.781,2648.592,2509.497,2491.326,1123.073,1391.133z M1164.659,1386.489
		c-12.641,1.39-25.526,2.873-38.181,4.264c1390.141,1102.36,2510.498,1256.241,3477.406,971.143
		c18.012-9.724,35.994-19.634,53.955-29.668C3709.727,2571.248,2592.026,2404.321,1164.659,1386.489z M1206.201,1381.968
		c-12.599,1.354-25.305,2.75-37.955,4.124c1430.313,1019.203,2549.389,1183.37,3498.526,941.14
		c19.188-10.77,38.346-21.7,57.478-32.813C3792.418,2493.378,2674.591,2318.932,1206.201,1381.968z M1247.833,1377.661
		c-12.624,1.312-25.056,2.552-37.801,3.911C2680.239,2319,3798.774,2491.602,4731.042,2290.445
		c19.445-11.337,38.857-22.83,58.24-34.496C3873.552,2415.57,2755.422,2233.933,1247.833,1377.661z M1289.235,1373.375
		c-12.433,1.281-24.797,2.541-37.305,3.86c1509.058,856.493,2627.53,1036.486,3543.461,875.054
		c20.043-12.115,40.045-24.456,60.019-36.924C3954.883,2337.278,2835.989,2150.412,1289.235,1373.375z M1330.641,1369.084
		c-12.29,1.265-24.638,2.552-36.976,3.834c1547.514,776.848,2666.397,962.506,3566.837,839.278
		c20.194-12.629,40.352-25.436,60.477-38.408C4035.23,2259.034,2915.056,2067.431,1330.641,1369.084z M1372.316,1364.772
		c-12.272,1.255-24.703,2.574-36.979,3.829c1584.716,698.014,2704.579,888.631,3590.015,802.354
		c20.528-13.259,41.026-26.657,61.487-40.259C4115.196,2180.506,2993.148,1985.219,1372.316,1364.772z M1702.472,1331.334
		l7.605-0.662c-3.034,0.052-6.101,0.11-9.162,0.167l-6.169,0.349L1702.472,1331.334z M1660.768,1334.942
		c6.501-0.582,12.9-1.124,19.318-1.671l-16.773-0.312c-6.222,0.349-12.411,0.692-18.648,1.047
		C1650.023,1334.317,1655.38,1334.629,1660.768,1334.942z M1619.179,1338.592c8.505-0.775,16.918-1.514,25.294-2.238
		c-6.85-0.391-13.577-0.797-20.422-1.189c-8.465,0.469-16.925,0.939-25.458,1.433L1619.179,1338.592z M1578.764,1342.436
		c9.287-0.858,18.705-1.775,28.08-2.672l-23.717-2.297c-9.517,0.528-19.002,1.042-28.638,1.61L1578.764,1342.436z
		 M1537.778,1346.337c10.235-0.964,20.532-1.953,30.787-2.926l-26.315-3.641c-10.204,0.573-20.402,1.151-30.767,1.782
		L1537.778,1346.337z M1496.705,1350.247c10.843-1.042,21.639-2.062,32.436-3.089l-27.391-4.988
		c-10.512,0.667-21.091,1.36-31.564,2.01C1479.047,1346.213,1487.928,1348.248,1496.705,1350.247z M1455.172,1354.201
		c11.447-1.121,22.723-2.166,34.067-3.239c-9.054-2.068-18.194-4.167-27.325-6.255c-11.163,0.709-22.354,1.422-33.537,2.137
		C1437.315,1349.301,1446.145,1351.706,1455.172,1354.201z M1413.826,1358.138c11.739-1.166,23.157-2.208,34.74-3.307
		c-9.236-2.557-18.2-4.99-27.41-7.53c-11.249,0.713-22.473,1.416-33.79,2.151L1413.826,1358.138z M1372.654,1362.376
		c11.693-1.176,23.66-2.467,35.378-3.659l-26.997-8.859c-11.682,0.738-23.256,1.448-35.057,2.229
		C1354.891,1355.534,1363.82,1358.998,1372.654,1362.376z M1331.058,1366.684c12.099-1.24,24.343-2.537,36.437-3.771
		c-8.995-3.447-18.075-6.963-27.138-10.466c-11.943,0.775-23.802,1.53-35.864,2.348
		C1313.38,1358.788,1322.297,1362.819,1331.058,1366.684z M1289.719,1370.965c12.235-1.272,24.462-2.543,36.644-3.792
		c-8.865-3.912-17.883-7.988-26.861-12.024c-12.027,0.832-24.235,1.734-36.244,2.567
		C1272.123,1362.199,1280.879,1366.523,1289.719,1370.965z M1248.384,1375.245c12.38-1.308,24.609-2.552,36.905-3.823
		c-8.861-4.457-17.684-8.862-26.591-13.384c-12.084,0.843-24.249,1.718-36.359,2.572
		C1231.032,1365.507,1239.653,1370.287,1248.384,1375.245z M1206.831,1379.546c12.635-1.354,24.942-2.577,37.456-3.88
		c-8.803-5.004-17.485-9.799-26.253-14.747c-12.156,0.858-24.295,1.707-36.519,2.587
		C1189.942,1368.819,1198.366,1374.146,1206.831,1379.546z M1165.377,1384.051c12.514-1.359,25.149-2.771,37.623-4.108
		c-8.527-5.447-17.008-10.801-25.494-16.154c-12.327,0.88-24.525,1.707-36.951,2.618
		C1148.823,1372.271,1157.094,1378.141,1165.377,1384.051z M1123.87,1388.68c12.573-1.38,25.359-2.853,37.92-4.229
		c-8.35-5.961-16.681-11.874-25.009-17.778c-12.452,0.9-24.707,1.729-37.274,2.672L1123.87,1388.68z M1081.885,1393.367
		c12.857-1.431,25.768-2.89,38.58-4.306c-8.167-6.483-16.331-12.966-24.499-19.441c-12.488,0.948-25.248,1.984-37.742,2.938
		C1066.106,1379.473,1073.997,1386.426,1081.885,1393.367z M1039.686,1398.081c13.055-1.476,26.003-2.906,38.987-4.354
		c-7.928-6.984-15.858-13.963-23.781-20.909c-12.525,0.957-25.197,1.962-37.748,2.938
		C1024.661,1383.239,1032.195,1390.784,1039.686,1398.081z M997.909,1402.742c13.041-1.49,25.796-2.87,38.738-4.323
		c-7.522-7.332-15.087-14.91-22.641-22.418c-12.734,0.983-25.484,1.973-38.269,2.973
		C983.139,1387.008,990.517,1394.794,997.909,1402.742z M956.069,1407.491c13.056-1.51,25.904-2.943,38.872-4.416
		c-7.398-7.962-14.784-15.81-22.198-23.866c-12.738,0.994-25.368,1.953-38.185,2.973
		C941.731,1390.712,948.896,1398.992,956.069,1407.491z M0,1532.922c334.45-48.618,651.868-90.123,953.243-125.094
		c-7.21-8.546-14.406-16.841-21.616-25.419C636.809,1405.955,326.596,1434.826,0,1469.541v-2.386
		c325.934-34.642,635.533-63.464,929.748-86.962c-6.986-8.359-13.998-17.133-20.99-25.601
		C620.91,1366.625,318.302,1382.77,0,1403.455v-2.348c317.6-20.638,619.583-36.761,906.894-48.791
		c-7.023-8.521-14.06-17.186-21.089-25.773c-280.848,0.491-575.827,3.869-885.806,10.478v-2.359
		c309.264-6.586,603.604-9.972,883.879-10.472c-7.034-8.603-14.06-17.102-21.105-25.788
		c-273.865-11.104-561.177-20.56-862.774-28.117v-2.359c300.868,7.536,587.519,16.968,860.781,28.039
		c-6.977-8.618-13.947-17.148-20.934-25.871c-266.899-22.759-546.584-45.12-839.847-66.92v-2.364
		c292.528,21.743,571.548,44.047,837.849,66.747c-6.799-8.493-13.614-17.315-20.419-25.887
		c-260.084-34.5-532.311-69.867-817.43-106.018v-2.379c284.35,36.052,555.888,71.324,815.339,105.737
		c-6.805-8.589-13.617-17.238-20.428-25.904l-254.323-46.531c-174.872-31.996-355.01-64.954-540.588-98.877v-2.39
		c185.766,33.949,366.029,66.935,541.014,98.951l251.689,46.052c-6.841-8.714-13.665-17.218-20.512-26.018
		C525.839,1126.078,268.67,1064.431,0,999.241v-2.427c267.811,64.98,524.199,126.442,769.844,184.498
		c-6.648-8.552-13.302-17.274-19.953-25.914C510.264,1085.146,260.517,1010.156,0,930.234v-2.464
		c259.658,79.666,508.609,154.423,747.496,224.476c-6.569-8.539-13.161-17.321-19.73-25.939
		C494.839,1043.902,252.453,955.435,0,860.586v-2.515c251.517,94.499,493.037,182.67,725.167,264.82
		c-6.554-8.598-13.104-17.168-19.661-25.845C479.304,1002.345,244.327,900.228,0,790.283v-2.583
		c243.297,109.492,477.326,211.219,702.657,305.597c-6.533-8.649-13.05-17.014-19.585-25.746
		C463.634,960.402,236.123,844.475,0,719.245v-2.683c234.977,124.642,461.427,240.059,679.881,346.79
		c-6.121-8.187-12.27-16.774-18.391-25.028C448.579,918.46,228.241,788.361,0,647.4v-2.78
		c227.017,140.221,446.215,269.693,658.063,389.039c-6.027-8.135-12.06-16.43-18.089-24.627
		C433.565,876.241,220.375,731.686,0,574.639v-2.912c218.964,156.058,430.838,299.795,636.006,431.903
		c-5.913-8.055-11.818-16.035-17.737-24.153C418.401,833.544,212.419,674.246,0,500.799v-3.077
		c210.739,172.097,415.138,330.264,613.516,475.289c-5.767-7.933-11.515-15.551-17.287-23.545
		C402.982,790.163,204.329,615.869,0,425.72v-3.287c202.405,188.383,399.233,361.209,590.756,519.335
		c-5.116-7.102-10.255-14.508-15.372-21.659C388.352,746.816,196.63,556.814,0,349.111v-3.417
		c194.293,205.307,383.792,393.325,568.7,565.001c-4.841-6.781-9.693-13.648-14.534-20.471
		C373.432,702.566,188.775,496.482,0,270.777v-3.594c185.703,222.148,367.419,425.315,545.321,610.578
		c-4.202-5.938-8.398-11.78-12.604-17.749C358.345,657.567,180.815,434.855,0,190.527v-3.921
		c175.806,237.692,348.507,454.935,518.214,652.973c-2.582-3.687-5.155-7.285-7.737-10.983
		C357.456,630.272,202.471,413.461,45.483,177.044h2.994C194.934,397.457,339.636,600.802,482.641,788.06
		C353.056,600.334,222.498,396.949,90.957,177.044h2.577c140.719,235.287,280.309,451.635,418.781,650.068
		c15.071,19.534,30.075,38.422,45.109,57.596c14.993,17.284,29.976,34.48,44.927,51.473c15.133,15.507,30.319,31.252,45.395,46.498
		c18.013,16.389,36.103,33.048,54.032,49.135c17.247,13.88,34.677,28.263,51.839,41.907c17.91,12.717,36.113,26.08,53.924,38.578
		c20.501,12.796,41.09,25.731,61.455,38.286c20.626,11.232,41.11,22.274,61.586,33.304c20.666,9.748,41.048,19.189,61.564,28.772
		c20.839,8.427,41.459,16.665,62.137,24.95c21.21,7.259,42.5,14.57,63.532,21.715c22.053,6.296,44.578,12.812,66.449,19.018
		c23.927,5.547,47.961,11.135,71.691,16.625l69.27,12.634c24.321,3.316,48.539,6.629,72.631,9.93
		c24.505,2.291,48.89,4.583,73.154,6.874c25.487,1.36,50.575,2.76,75.761,4.145c26.18,0.406,52.073,0.865,77.937,1.328
		c25.509-0.5,50.767-0.937,76.111-1.391c27.678-1.468,54.87-2.77,82.252-4.139c1452.684-122.453,2473.26-73.653,3216.931,56.512
		v2.345c-732.192-128.255-1733-177.618-3151.008-62.065c1421.449-67.3,2420.024,6.26,3151.008,140.05v2.379
		c-742.135-135.874-1760.28-209.639-3217.009-136.857c-1.749,0.145-3.525,0.307-5.273,0.452
		c1462.476-21.377,2479.762,75.751,3222.282,214.124v2.406c-748.049-139.43-1775.075-237.001-3255.481-213.655l-19.687,1.709
		c1492.712,30.75,2523.247,150.328,3275.168,288.895v2.405c-755.627-139.257-1792.728-259.341-3297.548-289.364
		c-8.456,0.729-16.883,1.443-25.416,2.203c1519.121,87.849,2561.338,228.242,3322.964,362.554v2.393
		c-764.291-134.804-1811.204-275.745-3339.259-363.537c-9.614,0.819-19.199,1.62-28.986,2.511
		C3174.413,1489.547,4227.78,1648.589,5000,1773.792v2.385c-774.288-125.536-1831.278-285.12-3380.889-435.225
		c-10.048,0.946-20.262,1.957-30.257,2.879c959.479,132.811,1730.895,249.999,2364.841,346.31
		c399.057,60.628,743.525,112.95,1046.305,155.703v2.385c-302.873-42.766-647.456-95.102-1046.654-155.75
		c-636.116-96.645-1410.651-214.307-2374.691-347.675c-10.782,1.021-21.621,2.068-32.375,3.082
		c1581.666,287.876,2656.199,475.289,3453.72,565.88v2.365c-799.005-90.742-1875.959-278.663-3462.352-567.428
		c-11.203,1.064-22.426,2.131-33.665,3.21C3101.219,1716.077,4186.971,1912.13,5000,1976.528v2.396
		c-814.387-64.519-1902.311-261.098-3503.483-626.301c-11.645,1.104-23.23,2.188-34.973,3.333
		C3071.95,1801.398,4169.411,2001.634,5000,2033.52v2.381c-831.807-31.935-1931.131-232.648-3545.058-679.321
		c-11.847,1.13-23.541,2.199-35.546,3.386C3039.346,1891.35,4149.625,2091.158,5000,2084.139v2.405
		c-851.511,6.994-1963.497-193.318-3586.46-726.021c-11.932,1.203-24.133,2.509-36.066,3.713
		c1620.756,620.016,2742.211,814.429,3613.378,763.773c3.05-2.032,6.101-4.067,9.148-6.108v2.822l-4.427,2.958l4.427-0.265v2.458
		c-2.813,0.177-5.635,0.349-8.461,0.515c-20.354,13.556-40.751,26.914-61.175,40.13c19.31-1.905,38.327-4.161,57.417-6.327
		c4.076-2.478,8.147-4.962,12.219-7.457v2.75l-6.659,4.071l6.659-0.76v2.484c-3.874,0.428-7.743,0.859-11.599,1.297
		c-19.877,12.092-39.8,24.003-59.759,35.762c18.631-2.906,37.154-5.963,55.599-9.128c5.257-2.881,10.509-5.77,15.759-8.672v2.708
		c-2.905,1.604-5.811,3.208-8.716,4.803c2.905-0.505,5.811-1.016,8.716-1.532v2.443c-5.077,0.895-10.152,1.781-15.244,2.655
		c-18.685,10.25-37.389,20.415-56.16,30.352c17.692-3.829,35.486-7.484,53.025-11.566c6.132-2.98,12.26-5.978,18.378-8.998v2.587
		l-8.095,3.968c2.701-0.634,5.397-1.28,8.095-1.936v2.489c-5.946,1.473-11.901,2.921-17.893,4.311
		c-16.665,8.078-33.407,15.919-50.143,23.773c15.658-4.385,31.375-8.66,46.936-13.248c7.042-2.98,14.076-5.983,21.1-9.009v5.093
		c-6.711,2.057-13.37,4.218-20.117,6.208c-7.09,3.099-14.165,6.234-21.308,9.202c13.895-4.89,27.634-10.134,41.425-15.259v2.75
		c-27.447,9.983-55.037,19.637-82.743,29.012c-40.861,16.294-81.919,32.038-123.286,46.932
		c-43.129,18.221-86.544,35.516-130.205,51.983c-41.704,18.28-83.575,35.876-125.686,52.487
		c-41.402,18.836-82.965,36.829-124.701,53.957C3351.527,2961.219,2199.955,2884.551,955.065,1409.98
		C653.154,1444.991,335.128,1486.569,0,1535.292V1532.922z"/>
</g>
</svg>
